<svg width="34" height="35" viewBox="0 0 34 35" fill="none" xmlns="http://www.w3.org/2000/svg">
<path d="M26.6009 6.49632V1.46317C26.6009 0.655084 25.977 0 25.2074 0C24.4378 0 23.814 0.655084 23.814 1.46317V6.49632C23.814 7.3044 24.4378 7.95948 25.2074 7.95948C25.977 7.95948 26.6009 7.3044 26.6009 6.49632Z" fill="none"/>
<path d="M9.6258 6.49632V1.46317C9.6258 0.655084 9.00191 0 8.23231 0C7.46276 0 6.83887 0.655084 6.83887 1.46317V6.49632C6.83887 7.3044 7.46276 7.95948 8.23231 7.95948C9.00191 7.95948 9.6258 7.3044 9.6258 6.49632Z" fill="none"/>
<path d="M0 32.0924C0 33.6937 1.2374 35 2.76909 35H30.6741C32.199 35 33.4431 33.6937 33.4431 32.0924V12.5824H0V32.0924ZM10.6684 21.5929C10.7486 21.3402 10.956 21.1575 11.2101 21.1154L14.6013 20.5957L16.1196 17.3721C16.2333 17.1263 16.4674 16.9789 16.7216 16.9789C16.9757 16.9789 17.2098 17.1263 17.3169 17.3721L18.8352 20.5957L22.233 21.1154C22.4872 21.1575 22.6945 21.3402 22.7748 21.5929C22.8483 21.8458 22.7881 22.1267 22.6009 22.3163L20.1462 24.8306L20.728 28.3772C20.7682 28.6441 20.6679 28.911 20.4605 29.0655C20.3468 29.1568 20.2064 29.1989 20.0659 29.1989C19.9589 29.1989 19.8518 29.1709 19.7582 29.1147L16.7216 27.4432L13.6849 29.1147C13.4575 29.2411 13.1833 29.22 12.9826 29.0655C12.7753 28.911 12.6683 28.6441 12.7151 28.3772L13.2903 24.8306L10.8356 22.3163C10.655 22.1267 10.5881 21.8458 10.6684 21.5929Z" fill="none"/>
<path d="M30.6741 3.97949H27.9384V6.49372C27.9384 8.07394 26.7144 9.36619 25.2094 9.36619C23.7045 9.36619 22.4738 8.07394 22.4738 6.49372V3.97949H10.9627V6.49372C10.9627 8.07394 9.73868 9.36619 8.23371 9.36619C6.72879 9.36619 5.49808 8.07394 5.49808 6.49372V3.97949H2.76909C1.2374 3.97949 0 5.27877 0 6.88704V11.1781H33.4431V6.88704C33.4431 5.27877 32.199 3.97949 30.6741 3.97949Z" fill="none"/>
</svg>
