<svg width="35" height="37" viewBox="0 0 35 37" fill="none" xmlns="http://www.w3.org/2000/svg">
<path d="M33.7855 16.1253H31.0988C30.7676 14.9273 30.326 13.8067 29.7739 12.7633L31.6877 10.7538C32.1661 10.2515 32.1661 9.47858 31.6877 8.97622L28.0442 5.15051C27.5657 4.64814 26.8297 4.64814 26.3512 5.15051L24.4374 7.15997C23.4437 6.58032 22.3764 6.1166 21.2355 5.76881V2.98647C21.2355 2.29089 20.7203 1.74988 20.0578 1.74988H14.9054C14.2429 1.74988 13.7277 2.29089 13.7277 2.98647V5.80745C12.5868 6.15524 11.5195 6.61896 10.5258 7.19862L8.61199 5.18915C8.13354 4.68679 7.39748 4.68679 6.91903 5.18915L3.2755 9.01486C2.79706 9.51723 2.79706 10.2901 3.2755 10.7925L5.18927 12.8019C4.63722 13.8453 4.19558 14.966 3.86435 16.1639H1.17771C0.515247 16.1639 0 16.7049 0 17.4005V22.8106C0 23.5062 0.515247 24.0472 1.17771 24.0472H3.86435C4.19558 25.2451 4.63722 26.3658 5.18927 27.4092L3.2755 29.4186C2.79706 29.921 2.79706 30.6939 3.2755 31.1962L6.91903 35.022C7.39748 35.5243 8.13354 35.5243 8.61199 35.022L10.5258 33.0125C11.5195 33.5921 12.5868 34.0559 13.7277 34.4037C13.9853 34.4809 14.2797 34.4809 14.5373 34.5582V27.1387C11.8875 25.9021 10.0105 23.1197 10.0105 19.8351C10.0105 17.13 11.2986 14.7341 13.286 13.2656C13.8013 12.8792 14.5005 13.3043 14.5005 13.9612V17.8642C14.5005 19.5645 15.8254 20.9944 17.4816 20.9944C19.1377 20.9944 20.4627 19.6032 20.4627 17.8642V13.9612C20.4627 13.3043 21.1619 12.8792 21.6772 13.2656C23.6278 14.6955 24.9527 17.0914 24.9527 19.8351C24.9527 23.1197 23.0757 25.9407 20.4259 27.1387V34.5196C20.6835 34.4809 20.9779 34.4423 21.2355 34.365H21.2723C22.4132 34.0559 23.4805 33.5535 24.4742 32.9739L26.388 34.9833C26.8665 35.4857 27.6025 35.4857 28.081 34.9833L31.7245 31.1576C32.2029 30.6552 32.2029 29.8824 31.7245 29.38L29.8107 27.3705C30.3628 26.3272 30.8044 25.2065 31.1356 24.0086H33.8223C34.4848 24.0086 35 23.4675 35 22.772V17.3619C34.9632 16.6663 34.448 16.1253 33.7855 16.1253Z" fill="#BDBDBD"/>
</svg>
