<svg width="31" height="35" viewBox="0 0 31 35" fill="none" xmlns="http://www.w3.org/2000/svg">
<path d="M30.163 29.0608C29.1181 23.2555 24.1985 19.0132 18.4517 19.0132H12.4873C6.60986 19.0132 1.64673 23.3895 0.688934 29.3287C0.210035 32.3207 2.47392 35 5.39085 35H25.5046C28.4651 35 30.7289 32.2313 30.2065 29.2394L30.163 29.0608Z" fill="#BDBDBD"/>
<path d="M9.35257 14.2348C12.7484 17.718 18.234 17.8073 21.7169 14.4135L21.8039 14.3241C24.8079 11.3768 25.1127 6.59866 22.457 3.29412C18.8435 -1.17147 12.1389 -1.08216 8.65599 3.47275C6.21796 6.68797 6.47918 11.2875 9.30903 14.1902L9.35257 14.2348Z" fill="#BDBDBD"/>
</svg>
