<svg width="35" height="35" viewBox="0 0 35 35" fill="none" xmlns="http://www.w3.org/2000/svg">
<path d="M35 17.5C35 7.83492 27.1651 0 17.5 0C7.83492 0 0 7.83492 0 17.5C0 27.1651 7.83492 35 17.5 35C27.1651 35 35 27.1651 35 17.5ZM16.8317 4.27874C18.2429 3.92644 19.6553 4.60791 20.2614 5.93694C20.4761 6.40774 20.5411 6.90488 20.51 7.41918C20.4214 8.88865 20.3356 10.3581 20.251 11.8276C20.119 14.1234 19.9869 16.4195 19.8588 18.7153C19.8189 19.4271 19.7902 20.1397 19.7595 20.8519C19.706 22.0963 18.7776 23.0148 17.5678 23.0176C16.386 23.0204 15.4396 22.1135 15.377 20.9289C15.1887 17.3807 14.9979 13.8329 14.8044 10.2851C14.7526 9.33192 14.6887 8.37954 14.6269 7.42676C14.5307 5.93813 15.45 4.62347 16.8317 4.27874ZM17.5547 30.9547C15.93 30.9407 14.6149 29.6157 14.6209 27.9986C14.6269 26.3579 15.9503 25.0492 17.5982 25.0552C19.2192 25.0608 20.5359 26.4146 20.5199 28.0592C20.5044 29.6372 19.141 30.9682 17.5547 30.9547Z" fill="#BDBDBD"/>
</svg>
