<svg width="69" height="69" viewBox="0 0 69 69" fill="none" xmlns="http://www.w3.org/2000/svg">
<path d="M1 14.3996C1 10.8458 2.41174 7.43758 4.92466 4.92466C7.43758 2.41174 10.8458 1 14.3996 1H54.5985C58.1523 1 61.5606 2.41174 64.0735 4.92466C66.5864 7.43758 67.9982 10.8458 67.9982 14.3996V54.5985C67.9982 58.1523 66.5864 61.5606 64.0735 64.0735C61.5606 66.5864 58.1523 67.9982 54.5985 67.9982H14.3996C10.8458 67.9982 7.43758 66.5864 4.92466 64.0735C2.41174 61.5606 1 58.1523 1 54.5985V14.3996Z" stroke="#828282" stroke-width="2" stroke-linecap="round" stroke-linejoin="round"/>
<path d="M22.7761 31.149C27.4014 31.149 31.1509 27.3994 31.1509 22.7742C31.1509 18.1489 27.4014 14.3994 22.7761 14.3994C18.1509 14.3994 14.4014 18.1489 14.4014 22.7742C14.4014 27.3994 18.1509 31.149 22.7761 31.149Z" stroke="#828282" stroke-width="2" stroke-linecap="round" stroke-linejoin="round"/>
<path d="M42.9627 36.5792L14.4014 67.998H55.5047C58.8187 67.998 61.9969 66.6816 64.3401 64.3383C66.6834 61.995 67.9999 58.8168 67.9999 55.5029C67.9999 53.9418 67.4137 52.4377 66.3584 51.282L52.8583 36.5591C52.2291 35.8728 51.4638 35.3251 50.6111 34.9511C49.7584 34.577 48.8372 34.3848 47.9061 34.3867C46.975 34.3886 46.0545 34.5846 45.2033 34.9621C44.3522 35.3396 43.5891 35.8903 42.9627 36.5792V36.5792Z" stroke="#828282" stroke-width="2" stroke-linecap="round" stroke-linejoin="round"/>
</svg>
