<svg width="24" height="24" viewBox="0 0 24 24" fill="none" xmlns="http://www.w3.org/2000/svg">
<circle cx="12" cy="12" r="10.85" stroke="#F2F2F2" stroke-width="2.3"/>
<path d="M8.00032 8.74697C7.99827 8.79579 8.00614 8.84452 8.02347 8.89016C8.04079 8.9358 8.06719 8.97739 8.10105 9.01237C8.13491 9.04734 8.17551 9.07497 8.22036 9.09354C8.2652 9.11212 8.31334 9.12125 8.36182 9.12039H9.59932C9.80632 9.12039 9.97132 8.94955 9.99832 8.74244C10.1333 7.7507 10.8083 7.02807 12.0113 7.02807C13.0403 7.02807 13.9823 7.54661 13.9823 8.79384C13.9823 9.75383 13.4213 10.1953 12.5348 10.8665C11.5253 11.6058 10.7258 12.469 10.7828 13.8704L10.7873 14.1985C10.7889 14.2977 10.8291 14.3923 10.8993 14.4618C10.9694 14.5314 11.0639 14.5704 11.1623 14.5704H12.3788C12.4783 14.5704 12.5737 14.5306 12.644 14.4597C12.7143 14.3888 12.7538 14.2927 12.7538 14.1924V14.0337C12.7538 12.9482 13.1633 12.6323 14.2688 11.7872C15.1823 11.0872 16.1348 10.3102 16.1348 8.67894C16.1348 6.39462 14.2208 5.29102 12.1253 5.29102C10.2248 5.29102 8.14282 6.18297 8.00032 8.74697ZM10.3358 17.4594C10.3358 18.2652 10.9733 18.8609 11.8508 18.8609C12.7643 18.8609 13.3928 18.2652 13.3928 17.4594C13.3928 16.6249 12.7628 16.0383 11.8493 16.0383C10.9733 16.0383 10.3358 16.6249 10.3358 17.4594Z" fill="#F2F2F2"/>
</svg>
