<svg width="14" height="13" viewBox="0 0 14 13" fill="none" xmlns="http://www.w3.org/2000/svg">
<path d="M8.484 1.39344L9.765 2.78688H12.6V11.1475H1.4V2.78688H4.235L5.516 1.39344H8.484ZM9.1 0H4.9L3.619 1.39344H1.4C0.63 1.39344 0 2.02048 0 2.78688V11.1475C0 11.9139 0.63 12.5409 1.4 12.5409H12.6C13.37 12.5409 14 11.9139 14 11.1475V2.78688C14 2.02048 13.37 1.39344 12.6 1.39344H10.381L9.1 0ZM7 4.87703C8.155 4.87703 9.1 5.8176 9.1 6.96719C9.1 8.11677 8.155 9.05735 7 9.05735C5.845 9.05735 4.9 8.11677 4.9 6.96719C4.9 5.8176 5.845 4.87703 7 4.87703ZM7 3.48359C5.068 3.48359 3.5 5.04424 3.5 6.96719C3.5 8.89013 5.068 10.4508 7 10.4508C8.932 10.4508 10.5 8.89013 10.5 6.96719C10.5 5.04424 8.932 3.48359 7 3.48359Z" fill="white"/>
</svg>
