<svg width="26" height="26" viewBox="0 0 26 26" fill="none" xmlns="http://www.w3.org/2000/svg">
<path d="M12.9999 0C12.7139 0 12.4312 0.00975008 12.15 0.0276252L12.254 1.64939C12.7508 1.61729 13.249 1.61729 13.7458 1.64939L13.8498 0.0276252C13.5669 0.00928082 13.2834 6.762e-05 12.9999 0V0ZM10.4649 0.247002C9.90263 0.359128 9.35337 0.507004 8.82037 0.685756L9.342 2.22627C9.80838 2.06702 10.2878 1.93864 10.7785 1.84114L10.4649 0.248627V0.247002ZM17.1794 0.687381C16.642 0.50519 16.0932 0.358621 15.5366 0.248627L15.2213 1.84114C15.7121 1.93864 16.1914 2.06864 16.6578 2.22627L17.1794 0.687381ZM20.2231 2.19052C19.7514 1.87485 19.2596 1.59041 18.7508 1.33901L18.0309 2.79502C18.4778 3.01602 18.9085 3.26628 19.3196 3.5409L20.2231 2.19052ZM7.24736 1.33901C6.7371 1.59089 6.24635 1.87527 5.77672 2.19052L6.68023 3.53928C7.09324 3.26361 7.52368 3.015 7.96886 2.79502L7.24736 1.33901ZM4.42796 3.22565C4.0022 3.5994 3.5992 4.00241 3.22545 4.42816L4.44746 5.50067C4.77571 5.12692 5.12671 4.77591 5.50047 4.44766L4.42796 3.22565ZM22.7744 4.42816C22.4 4.00169 21.9983 3.60001 21.5718 3.22565L20.4993 4.44766C20.8731 4.77591 21.2257 5.12692 21.5523 5.50067L22.7744 4.42816ZM24.661 7.24756C24.4096 6.73926 24.1252 6.24799 23.8095 5.77692L22.4607 6.68043C22.7354 7.09156 22.984 7.52219 23.205 7.96907L24.661 7.24918V7.24756ZM2.19032 5.77692C1.87506 6.24655 1.58906 6.73731 1.33881 7.24918L2.79482 7.96907C3.01582 7.52219 3.26607 7.09156 3.5407 6.68043L2.19032 5.77692ZM0.687178 8.82057C0.504982 9.35797 0.358413 9.90679 0.248424 10.4635L1.84094 10.7787C1.93844 10.288 2.06844 9.80858 2.22607 9.3422L0.687178 8.82057ZM25.753 10.4651C25.6431 9.90786 25.4965 9.35849 25.3143 8.82057L23.7737 9.3422C23.933 9.80858 24.0614 10.288 24.1589 10.7787L25.7514 10.4635L25.753 10.4651ZM0.0274221 12.1502C-0.0091407 12.7162 -0.0091407 13.284 0.0274221 13.85L1.64919 13.746C1.61708 13.2493 1.61708 12.751 1.64919 12.2542L0.0274221 12.1502ZM26 13.0001C26 12.7166 25.9907 12.4331 25.9724 12.1502L24.3506 12.2542C24.3828 12.751 24.3828 13.2493 24.3506 13.746L25.9724 13.85C25.9907 13.5671 26 13.2836 26 13.0001ZM0.246799 15.5351C0.358925 16.0974 0.506801 16.6466 0.685553 17.1796L2.22607 16.658C2.06624 16.1882 1.93758 15.7083 1.84094 15.2215L0.248424 15.5368L0.246799 15.5351ZM25.3126 17.1796C25.4946 16.6466 25.6409 16.0974 25.7514 15.5368L24.1589 15.2215C24.0614 15.7123 23.9314 16.1916 23.7737 16.658L25.3126 17.1796ZM1.33881 18.7527C1.59027 19.2609 1.87471 19.7522 2.19032 20.2233L3.53908 19.3198C3.26313 18.9069 3.01451 18.4765 2.79482 18.0311L1.33881 18.751V18.7527ZM23.8095 20.2233C24.1247 19.7537 24.4107 19.2629 24.661 18.751L23.205 18.0311C22.984 18.478 22.7337 18.9087 22.4591 19.3198L23.8095 20.2233ZM3.22545 21.5721C3.5992 21.9978 4.0022 22.4008 4.42796 22.7746L5.50047 21.5526C5.12699 21.2248 4.77524 20.873 4.44746 20.4995L3.22545 21.5721ZM21.5718 22.7746C21.9976 22.4008 22.4006 21.9978 22.7744 21.5721L21.5523 20.4995C21.2257 20.8733 20.8731 21.2259 20.4993 21.5526L21.5718 22.7746ZM18.7525 24.6612C19.2627 24.4093 19.7535 24.1249 20.2231 23.8097L19.3196 22.4609C18.9066 22.7366 18.4761 22.9852 18.0309 23.2052L18.7508 24.6612H18.7525ZM5.77672 23.8097C6.24635 24.1249 6.7371 24.4109 7.24898 24.6612L7.96886 23.2052C7.52348 22.985 7.09302 22.7358 6.68023 22.4593L5.77672 23.8097ZM8.82037 25.3128C9.35337 25.4948 9.90263 25.6411 10.4633 25.7516L10.7785 24.1591C10.2917 24.0624 9.81186 23.9337 9.342 23.7739L8.82037 25.3128ZM15.5349 25.7532C16.0922 25.6433 16.6415 25.4967 17.1794 25.3145L16.6578 23.7739C16.188 23.9337 15.7081 24.0624 15.2213 24.1591L15.5366 25.7516L15.5349 25.7532ZM12.15 25.9726C12.716 26.0092 13.2838 26.0092 13.8498 25.9726L13.7458 24.3508C13.2491 24.383 12.7508 24.383 12.254 24.3508L12.15 25.9726ZM13.8124 7.31256C13.8124 7.09707 13.7268 6.89041 13.5744 6.73803C13.4221 6.58566 13.2154 6.50005 12.9999 6.50005C12.7844 6.50005 12.5778 6.58566 12.4254 6.73803C12.273 6.89041 12.1874 7.09707 12.1874 7.31256V12.1876H7.31236C7.09687 12.1876 6.8902 12.2732 6.73783 12.4256C6.58545 12.578 6.49985 12.7846 6.49985 13.0001C6.49985 13.2156 6.58545 13.4223 6.73783 13.5746C6.8902 13.727 7.09687 13.8126 7.31236 13.8126H12.1874V18.6877C12.1874 18.9031 12.273 19.1098 12.4254 19.2622C12.5778 19.4146 12.7844 19.5002 12.9999 19.5002C13.2154 19.5002 13.4221 19.4146 13.5744 19.2622C13.7268 19.1098 13.8124 18.9031 13.8124 18.6877V13.8126H18.6875C18.9029 13.8126 19.1096 13.727 19.262 13.5746C19.4144 13.4223 19.5 13.2156 19.5 13.0001C19.5 12.7846 19.4144 12.578 19.262 12.4256C19.1096 12.2732 18.9029 12.1876 18.6875 12.1876H13.8124V7.31256Z" fill="#BDBDBD"/>
<path d="M13 7C13.2321 7 13.4546 7.0856 13.6187 7.23798C13.7828 7.39035 13.875 7.59701 13.875 7.8125V12.6875H19.125C19.3571 12.6875 19.5796 12.7731 19.7437 12.9255C19.9078 13.0778 20 13.2845 20 13.5C20 13.7155 19.9078 13.9222 19.7437 14.0745C19.5796 14.2269 19.3571 14.3125 19.125 14.3125H13.875V19.1875C13.875 19.403 13.7828 19.6097 13.6187 19.762C13.4546 19.9144 13.2321 20 13 20C12.7679 20 12.5454 19.9144 12.3813 19.762C12.2172 19.6097 12.125 19.403 12.125 19.1875V14.3125H6.875C6.64294 14.3125 6.42038 14.2269 6.25628 14.0745C6.09219 13.9222 6 13.7155 6 13.5C6 13.2845 6.09219 13.0778 6.25628 12.9255C6.42038 12.7731 6.64294 12.6875 6.875 12.6875H12.125V7.8125C12.125 7.59701 12.2172 7.39035 12.3813 7.23798C12.5454 7.0856 12.7679 7 13 7Z" fill="#BDBDBD"/>
</svg>
