<?xml version="1.0" encoding="UTF-8"?>
<svg width="8e3" height="8e3" version="1.1" viewBox="0 0 8e3 8e3" xmlns="http://www.w3.org/2000/svg" xmlns:cc="http://creativecommons.org/ns#" xmlns:dc="http://purl.org/dc/elements/1.1/" xmlns:rdf="http://www.w3.org/1999/02/22-rdf-syntax-ns#">
 <metadata>
  <rdf:RDF>
   <cc:Work rdf:about="">
    <dc:format>image/svg+xml</dc:format>
    <dc:type rdf:resource="http://purl.org/dc/dcmitype/StillImage"/>
    <dc:title>ridersРесурс 4</dc:title>
   </cc:Work>
  </rdf:RDF>
 </metadata>
 <defs>
  <style>.cls-1{fill:url(#radial-gradient);}.cls-2,.cls-3{fill:#fff;}.cls-3{font-size:780px;font-family:Play-Bold, Play;font-weight:700;}</style>
  <radialGradient id="radial-gradient" cx="1989.2" cy="1987.9" r="2573.1" gradientTransform="translate(8.17,-3.74)" gradientUnits="userSpaceOnUse">
   <stop stop-color="#141414" offset="0"/>
   <stop stop-color="#111" offset=".46"/>
   <stop stop-color="#060606" offset=".86"/>
   <stop offset="1"/>
  </radialGradient>
 </defs>
 <title>ridersРесурс 4</title>
 <g transform="matrix(2.0108 0 0 2.0108 7.0685e-6 7.0685e-6)" data-name="Layer 2">
  <rect class="cls-1" width="3978.6" height="3978.6" fill="url(#radial-gradient)"/>
 </g>
 <g transform="translate(2010.7,2010.7)" data-name="Layer 1">
  <path class="cls-2" d="m802.54 3132.1c-200.77 0-363.47-163.75-363.47-365.83s162.7-365.81 363.47-365.81c158 0 292.47 101.53 342.54 243.28l164.34-6.93c-57.32-228-262.52-396.77-506.88-396.77-288.79 0-522.85 235.61-522.85 526.23s234.06 526.24 522.85 526.24c251.3 0 461.16-178.45 511.38-416.31l-165.06 1.35c-46.79 147.65-184.12 254.55-346.32 254.55z"/>
  <path class="cls-2" d="m574.36 1912.8 1.37 0.43v0.06c43.74 13 112.56 29.53 196.11 49.49 316 75.57 847.45 202.72 903.34 340.52 16.4 40.53-26 87.74-159.59 142.63l-2.15 1-145 66.37a31.24 31.24 0 0 0-15.5 41.19 30.91 30.91 0 0 0 30 18.32c459 4.46 823.44-53.36 997.36-136.42 73.3-35 116.61-76.82 124.2-123.09 8-48.87-22.23-97-96.72-141.14-147.57-87.4-492.88-172.67-1097.2-230.9l-43.06-118.51a31 31 0 0 0-27.38-20.47l-624.11-36.79a31 31 0 0 0-31.63 23.15l-29.14 84.69a31.15 31.15 0 0 0 19.13 39.47z"/>
  <path class="cls-2" d="m802.54 2594.2c-94.44 0-171 77.07-171 172.08s76.54 172.09 171 172.09c73.47 0 136.06-46.65 160.28-112.12l458.58-3.71 1.67-137.66-461 19.41c-24.74-64.41-86.84-110.09-159.53-110.09z"/>
  <path class="cls-2" d="m3176.1 2240a519.72 519.72 0 0 0-148.5 21.56l60.82 149.59a360.61 360.61 0 0 1 87.68-10.73c200.76 0 363.47 163.78 363.47 365.81s-162.71 365.83-363.47 365.83-363.47-163.75-363.47-365.83a365.62 365.62 0 0 1 68.26-213.45l-101.93-128.78a526.22 526.22 0 0 0-125.72 342.23c0 290.66 234.1 526.24 522.86 526.24s522.85-235.58 522.85-526.24-234.07-526.23-522.85-526.23z"/>
  <path class="cls-2" d="m3176.1 2938.4c94.42 0 171-77 171-172.09s-76.55-172.08-171-172.08a169.2 169.2 0 0 0-64.7 13l64.7 159.13-46.5 16-92-116.24a171.48 171.48 0 0 0-32.48 100.2c0 95.03 76.54 172.08 170.98 172.08z"/>
  <path class="cls-2" d="m2340.7 2074.6 18.76-11.26v0.06l0.1-0.06c59.3-35.51 121.84-73 151.9-117.14 38.08-55.88 21.09-131.67-135.1-250.93-305.84 26.93-464.29 98.38-697.58 234.71 227.56 31.13 481.53 78 656.51 148.74a31.13 31.13 0 0 1 5.41-4.12z"/>
  <path class="cls-2" d="m3111.4 2607.2-182.11-447.91c-70.35 32.76-133.74 76-187.69 132.88l296 374a171.34 171.34 0 0 1 73.8-58.97z"/>
  <path class="cls-2" d="m3084.6 2050.8v-0.07a30.6 30.6 0 0 0 7.75-3 31.25 31.25 0 0 0 12.25-42.27c-59.65-108.59-116.69-196.86-186.88-269.94-70.81-73.7-154.33-131.45-266.07-177.92a30.36 30.36 0 0 0-15.65-2.46l-215.77 23.4v0.06a31 31 0 0 0-27.63 30.05l-0.62 20.78c213.27 156.45 229.55 265.44 170.6 351.94-35.21 51.67-97.93 91.2-159.44 128.15 10.92 5.59 21.3 11.26 31.19 17.13 69.85 41.37 136.47 106.21 121.87 195.2-12.93 79-86.71 130.34-153.46 162.23-232.42 111-640.59 138.91-926.53 141.5l-3.16 262v0.37a31 31 0 0 0 29.67 32.3l941.44 40 0.74 0.06a31 31 0 0 0 32.71-29.24c13.64-234.25 56.27-429.35 150.37-578 92.88-146.83 237.59-249.79 456.62-302.27z"/>
  <path class="cls-2" d="m3176.1 2766.3-64.7-159.13a171.34 171.34 0 0 0-73.8 58.93l92 116.24z"/>
  <g class="cls-3" transform="matrix(.99 0 0 1 605.48 1012)" fill="#fff" aria-label="RIDERS">
   <path d="m54.6-506.22h227.76q101.4 0 146.64 24.96 45.24 24.18 45.24 81.9v88.92q0 44.46-31.98 70.2-31.2 24.96-83.46 31.98l146.64 208.26h-140.4l-132.6-198.9h-56.16v198.9h-121.68zm226.2 226.98q42.9 0 58.5-10.92 15.6-11.7 15.6-44.46v-35.88q0-28.08-17.16-38.22-16.38-10.92-56.94-10.92h-104.52v140.4z"/>
   <path d="m575.62-506.22h121.68v506.22h-121.68z"/>
   <path d="m807.18-506.22h215.28q88.92 0 140.4 14.04 51.48 13.26 75.66 46.8t24.18 92.82v205.92q0 57.72-22.62 89.7-22.62 31.2-74.1 44.46-51.48 12.48-142.74 12.48h-216.06zm210.6 419.64q49.92 0 74.88-3.9 25.74-4.68 36.66-17.16 11.7-12.48 11.7-39v-208.26q0-35.88-28.86-49.92-28.08-14.82-90.48-14.82h-92.82v333.06z"/>
   <path d="m1361.7-506.22h386.1v86.58h-264.42v116.22h238.68v86.58h-238.68v130.26h272.22v86.58h-393.9z"/>
   <path d="m1837-506.22h227.76q101.4 0 146.64 24.96 45.24 24.18 45.24 81.9v88.92q0 44.46-31.98 70.2-31.2 24.96-83.46 31.98l146.64 208.26h-140.4l-132.6-198.9h-56.16v198.9h-121.68zm226.2 226.98q42.9 0 58.5-10.92 15.6-11.7 15.6-44.46v-35.88q0-28.08-17.16-38.22-16.38-10.92-56.94-10.92h-104.52v140.4z"/>
   <path d="m2521.8 7.8q-72.54 0-179.4-14.04v-92.82q132.6 20.28 180.96 20.28 101.4 0 101.4-52.26v-32.76q0-24.96-14.82-38.22-14.04-13.26-51.48-13.26h-59.28q-166.92 0-166.92-132.6v-37.44q0-66.3 55.38-97.5t175.5-31.2q62.4 0 158.34 10.14v90.48q-117.78-14.04-162.24-14.04-61.62 0-82.68 10.14-22.62 10.92-22.62 34.32v35.88q0 39.78 67.08 39.78h60.84q86.58 0 125.58 31.98t39 97.5v33.54q0 90.48-64.74 122.46-31.2 16.38-69.42 22.62-37.44 7.02-90.48 7.02z"/>
  </g>
 </g>
</svg>
