<svg width="42" height="48" viewBox="0 0 42 48" fill="none" xmlns="http://www.w3.org/2000/svg">
<g filter="url(#filter0_d)">
<path d="M20.7654 9.85962C26.9704 9.85962 32.0001 14.8893 32.0001 21.0943C32.0001 25.8417 28.6643 31.0154 22.079 36.6707C21.7129 36.9853 21.246 37.158 20.7633 37.1576C20.2806 37.1572 19.814 36.9836 19.4484 36.6684L19.0128 36.2905C12.7191 30.7826 9.53076 25.7356 9.53076 21.0943C9.53076 14.8893 14.5604 9.85962 20.7654 9.85962Z" fill="#EB5757"/>
</g>
<g filter="url(#filter1_d)">
<path d="M22.207 42.2222L22.2069 42.2222C21.7574 42.5988 21.1823 42.8071 20.5857 42.8066C19.9892 42.8061 19.4145 42.5969 18.9657 42.2196C18.9656 42.2196 18.9656 42.2195 18.9655 42.2195L18.3252 41.6777C18.325 41.6775 18.3248 41.6773 18.3246 41.6771C9.05474 33.7659 4.5 26.6274 4.5 20.1769C4.5 11.5302 11.6907 4.5 20.5884 4.5C29.4861 4.5 36.6769 11.5302 36.6769 20.1769C36.6769 26.7758 31.9098 34.0962 22.207 42.2222Z" stroke="#EB5757"/>
</g>
<path d="M15.4141 26C14.6238 26 14.031 25.7759 13.6359 25.3277C13.2479 24.8795 13.0359 24.2108 13 23.3217L14.3687 23.0506C14.3903 23.6072 14.4765 24.0337 14.6274 24.3301C14.7854 24.6193 15.0297 24.7639 15.3602 24.7639C15.6045 24.7639 15.7841 24.6916 15.8991 24.547C16.0212 24.3952 16.0823 24.1928 16.0823 23.9398C16.0823 23.5928 16.0032 23.3 15.8452 23.0614C15.6943 22.8157 15.4536 22.5482 15.1231 22.259L14.0238 21.294C13.6861 21.0048 13.4311 20.694 13.2587 20.3614C13.0934 20.0289 13.0108 19.6313 13.0108 19.1687C13.0108 18.4819 13.2084 17.9506 13.6035 17.5747C14.0059 17.1916 14.5591 17 15.2632 17C16.0176 17 16.5565 17.2169 16.8798 17.6506C17.2103 18.0771 17.4007 18.6554 17.451 19.3855L16.0823 19.6241C16.0607 19.147 15.9925 18.7892 15.8775 18.5506C15.7697 18.3048 15.5542 18.1819 15.2309 18.1819C15.001 18.1819 14.8213 18.2614 14.692 18.4205C14.5627 18.5723 14.498 18.7675 14.498 19.006C14.498 19.288 14.5519 19.5265 14.6597 19.7217C14.7746 19.9096 14.9579 20.112 15.2093 20.3289L16.2978 21.294C16.7074 21.6482 17.0271 22.0277 17.257 22.4325C17.4869 22.8373 17.6019 23.3072 17.6019 23.8422C17.6019 24.2614 17.5085 24.6337 17.3217 24.959C17.142 25.2843 16.887 25.541 16.5565 25.7289C16.226 25.9096 15.8452 26 15.4141 26Z" fill="white"/>
<path d="M20.9227 26C20.0175 26 19.3708 25.7578 18.9829 25.2735C18.5949 24.7819 18.4009 24.0663 18.4009 23.1265V19.8301C18.4009 18.8976 18.5949 18.1928 18.9829 17.7157C19.3708 17.2386 20.0175 17 20.9227 17C21.8208 17 22.4639 17.2386 22.8519 17.7157C23.2398 18.1928 23.4338 18.8976 23.4338 19.8301V23.1265C23.4338 24.059 23.2363 24.7711 22.8411 25.2627C22.4531 25.7542 21.8137 26 20.9227 26ZM20.9227 24.8181C21.2748 24.8181 21.5119 24.706 21.634 24.4819C21.7562 24.2578 21.8173 23.9325 21.8173 23.506V19.4614C21.8173 19.0349 21.7562 18.7133 21.634 18.4964C21.5191 18.2795 21.282 18.1711 20.9227 18.1711C20.5635 18.1711 20.3228 18.2831 20.2007 18.5072C20.0785 18.7241 20.0175 19.0422 20.0175 19.4614V23.506C20.0175 23.9325 20.0785 24.2578 20.2007 24.4819C20.3228 24.706 20.5635 24.8181 20.9227 24.8181Z" fill="white"/>
<path d="M26.8122 26C26.0219 26 25.4292 25.7759 25.034 25.3277C24.646 24.8795 24.4341 24.2108 24.3981 23.3217L25.7668 23.0506C25.7884 23.6072 25.8746 24.0337 26.0255 24.3301C26.1836 24.6193 26.4278 24.7639 26.7583 24.7639C27.0026 24.7639 27.1822 24.6916 27.2972 24.547C27.4193 24.3952 27.4804 24.1928 27.4804 23.9398C27.4804 23.5928 27.4014 23.3 27.2433 23.0614C27.0924 22.8157 26.8517 22.5482 26.5212 22.259L25.422 21.294C25.0843 21.0048 24.8292 20.694 24.6568 20.3614C24.4915 20.0289 24.4089 19.6313 24.4089 19.1687C24.4089 18.4819 24.6065 17.9506 25.0017 17.5747C25.404 17.1916 25.9572 17 26.6614 17C27.4158 17 27.9546 17.2169 28.2779 17.6506C28.6084 18.0771 28.7988 18.6554 28.8491 19.3855L27.4804 19.6241C27.4589 19.147 27.3906 18.7892 27.2757 18.5506C27.1679 18.3048 26.9523 18.1819 26.629 18.1819C26.3991 18.1819 26.2195 18.2614 26.0902 18.4205C25.9608 18.5723 25.8962 18.7675 25.8962 19.006C25.8962 19.288 25.9501 19.5265 26.0578 19.7217C26.1728 19.9096 26.356 20.112 26.6075 20.3289L27.696 21.294C28.1055 21.6482 28.4252 22.0277 28.6551 22.4325C28.885 22.8373 29 23.3072 29 23.8422C29 24.2614 28.9066 24.6337 28.7198 24.959C28.5402 25.2843 28.2851 25.541 27.9546 25.7289C27.6241 25.9096 27.2433 26 26.8122 26Z" fill="white"/>
<defs>
<filter id="filter0_d" x="5.53076" y="5.85962" width="30.4693" height="35.298" filterUnits="userSpaceOnUse" color-interpolation-filters="sRGB">
<feFlood flood-opacity="0" result="BackgroundImageFix"/>
<feColorMatrix in="SourceAlpha" type="matrix" values="0 0 0 0 0 0 0 0 0 0 0 0 0 0 0 0 0 0 127 0"/>
<feOffset/>
<feGaussianBlur stdDeviation="2"/>
<feColorMatrix type="matrix" values="0 0 0 0 0.921569 0 0 0 0 0.341176 0 0 0 0 0.341176 0 0 0 1 0"/>
<feBlend mode="normal" in2="BackgroundImageFix" result="effect1_dropShadow"/>
<feBlend mode="normal" in="SourceGraphic" in2="effect1_dropShadow" result="shape"/>
</filter>
<filter id="filter1_d" x="0" y="0" width="41.1769" height="47.3066" filterUnits="userSpaceOnUse" color-interpolation-filters="sRGB">
<feFlood flood-opacity="0" result="BackgroundImageFix"/>
<feColorMatrix in="SourceAlpha" type="matrix" values="0 0 0 0 0 0 0 0 0 0 0 0 0 0 0 0 0 0 127 0"/>
<feOffset/>
<feGaussianBlur stdDeviation="2"/>
<feColorMatrix type="matrix" values="0 0 0 0 0.921569 0 0 0 0 0.341176 0 0 0 0 0.341176 0 0 0 1 0"/>
<feBlend mode="normal" in2="BackgroundImageFix" result="effect1_dropShadow"/>
<feBlend mode="normal" in="SourceGraphic" in2="effect1_dropShadow" result="shape"/>
</filter>
</defs>
</svg>
