<svg width="129" height="70" viewBox="0 0 129 70" fill="none" xmlns="http://www.w3.org/2000/svg">
<g filter="url(#filter0_i)">
<path d="M19.4593 70C13.0007 70 8.18459 68.2913 5.01098 64.8739C1.89304 61.4006 0.22271 55.9104 0 48.4034L12.778 46.4706C12.8337 50.7843 13.3348 53.8936 14.2813 55.7983C15.2835 57.6471 16.7589 58.5714 18.7076 58.5714C21.2131 58.5714 22.4659 56.9188 22.4659 53.6134C22.4659 50.9804 21.8534 48.7115 20.6285 46.8067C19.4593 44.902 17.5941 42.8571 15.0329 40.6723L9.18679 35.5462C6.29156 33.0812 4.03662 30.4762 2.42197 27.7311C0.863001 24.93 0.0835163 21.6247 0.0835163 17.8151C0.0835163 12.1008 1.75384 7.70308 5.09449 4.62185C8.49082 1.54062 13.1399 0 19.0417 0C25.4446 0 29.7875 1.87675 32.0702 5.63025C34.4087 9.38375 35.6614 13.9496 35.8285 19.3277L22.967 20.9244C22.8556 17.395 22.5216 14.8739 21.9648 13.3613C21.4637 11.7927 20.3223 11.0084 18.5406 11.0084C17.26 11.0084 16.2578 11.5686 15.534 12.6891C14.8659 13.7535 14.5318 14.958 14.5318 16.3025C14.5318 18.5994 15.0329 20.5322 16.0351 22.1008C17.093 23.6695 18.7633 25.4622 21.0461 27.479L26.6417 32.437C29.9823 35.2941 32.5713 38.3193 34.4087 41.5126C36.2461 44.7059 37.1647 48.4874 37.1647 52.8571C37.1647 56.0504 36.4131 58.9636 34.9098 61.5966C33.4622 64.1737 31.4021 66.2185 28.7296 67.7311C26.0571 69.2437 22.967 70 19.4593 70Z" fill="#20D38F"/>
<path d="M63.779 70C56.4853 70 51.2794 68.1233 48.1615 64.3698C45.0435 60.5602 43.4846 54.958 43.4846 47.563V22.2689C43.4846 14.874 45.0435 9.32773 48.1615 5.63025C51.2794 1.87675 56.4853 0 63.779 0C71.1285 0 76.3621 1.87675 79.4801 5.63025C82.6537 9.38375 84.2405 14.93 84.2405 22.2689V47.563C84.2405 54.958 82.6537 60.5602 79.4801 64.3698C76.3621 68.1233 71.1285 70 63.779 70ZM63.779 59.3277C65.8948 59.3277 67.2867 58.6274 67.9548 57.2269C68.623 55.7703 68.957 53.8095 68.957 51.3445V18.5714C68.957 16.0504 68.623 14.0896 67.9548 12.6891C67.2867 11.2885 65.8948 10.5882 63.779 10.5882C61.7746 10.5882 60.4384 11.3165 59.7702 12.7731C59.1021 14.1737 58.768 16.1064 58.768 18.5714V51.3445C58.768 53.8095 59.0743 55.7703 59.6867 57.2269C60.2992 58.6274 61.6633 59.3277 63.779 59.3277Z" fill="#20D38F"/>
<path d="M111.295 70C104.836 70 100.02 68.2913 96.8462 64.8739C93.7283 61.4006 92.058 55.9104 91.8353 48.4034L104.613 46.4706C104.669 50.7843 105.17 53.8936 106.117 55.7983C107.119 57.6471 108.594 58.5714 110.543 58.5714C113.048 58.5714 114.301 56.9188 114.301 53.6134C114.301 50.9804 113.689 48.7115 112.464 46.8067C111.295 44.902 109.429 42.8571 106.868 40.6723L101.022 35.5462C98.1268 33.0812 95.8719 30.4762 94.2572 27.7311C92.6983 24.93 91.9188 21.6247 91.9188 17.8151C91.9188 12.1008 93.5891 7.70308 96.9298 4.62185C100.326 1.54062 104.975 0 110.877 0C117.28 0 121.623 1.87675 123.906 5.63025C126.244 9.38375 127.497 13.9496 127.664 19.3277L114.802 20.9244C114.691 17.395 114.357 14.8739 113.8 13.3613C113.299 11.7927 112.158 11.0084 110.376 11.0084C109.095 11.0084 108.093 11.5686 107.369 12.6891C106.701 13.7535 106.367 14.958 106.367 16.3025C106.367 18.5994 106.868 20.5322 107.87 22.1008C108.928 23.6695 110.599 25.4622 112.881 27.479L118.477 32.437C121.818 35.2941 124.407 38.3193 126.244 41.5126C128.081 44.7059 129 48.4874 129 52.8571C129 56.0504 128.248 58.9636 126.745 61.5966C125.297 64.1737 123.237 66.2185 120.565 67.7311C117.892 69.2437 114.802 70 111.295 70Z" fill="#20D38F"/>
</g>
<defs>
<filter id="filter0_i" x="0" y="0" width="129" height="74" filterUnits="userSpaceOnUse" color-interpolation-filters="sRGB">
<feFlood flood-opacity="0" result="BackgroundImageFix"/>
<feBlend mode="normal" in="SourceGraphic" in2="BackgroundImageFix" result="shape"/>
<feColorMatrix in="SourceAlpha" type="matrix" values="0 0 0 0 0 0 0 0 0 0 0 0 0 0 0 0 0 0 127 0" result="hardAlpha"/>
<feOffset dy="4"/>
<feGaussianBlur stdDeviation="2"/>
<feComposite in2="hardAlpha" operator="arithmetic" k2="-1" k3="1"/>
<feColorMatrix type="matrix" values="0 0 0 0 0 0 0 0 0 0 0 0 0 0 0 0 0 0 0.25 0"/>
<feBlend mode="normal" in2="shape" result="effect1_innerShadow"/>
</filter>
</defs>
</svg>
